<svg viewBox="0 0 24 24" xmlns="http://www.w3.org/2000/svg">
  <path d="M21.1 3L13.1 8.4L14.5 5.1L21.1 3Z" fill="#E2761B"/>
  <path d="M2.9 3L10.8 8.5L9.5 5.1L2.9 3Z" fill="#E4761B"/>
  <path d="M18.2 16.3L16.1 19.6L20.5 20.9L21.7 16.4L18.2 16.3Z" fill="#E4761B"/>
  <path d="M2.3 16.4L3.5 20.9L7.9 19.6L5.8 16.3L2.3 16.4Z" fill="#E4761B"/>
  <path d="M7.6 10.8L6.5 12.8L10.9 13L10.7 8.2L7.6 10.8Z" fill="#E4761B"/>
  <path d="M16.4 10.8L13.2 8.1L13.1 13L17.5 12.8L16.4 10.8Z" fill="#E4761B"/>
  <path d="M7.9 19.6L10.6 18.3L8.3 16.4L7.9 19.6Z" fill="#E4761B"/>
  <path d="M13.4 18.3L16.1 19.6L15.7 16.4L13.4 18.3Z" fill="#E4761B"/>
</svg>
