<svg viewBox="0 0 24 24" xmlns="http://www.w3.org/2000/svg">
  <path d="M6 10C9.5 6.5 14.5 6.5 18 10L19 11C19.3 11.3 19.3 11.7 19 12L17.8 13.2C17.7 13.3 17.5 13.3 17.4 13.2L16 11.8C13.5 9.3 10.5 9.3 8 11.8L6.6 13.2C6.5 13.3 6.3 13.3 6.2 13.2L5 12C4.7 11.7 4.7 11.3 5 11L6 10Z" fill="#3B99FC"/>
  <path d="M8.5 12.5C10 11 12 11 13.5 12.5L14.5 13.5C14.8 13.8 14.8 14.2 14.5 14.5L13.3 15.7C13.2 15.8 13 15.8 12.9 15.7L11.5 14.3C10.7 13.5 9.3 13.5 8.5 14.3L7.1 15.7C7 15.8 6.8 15.8 6.7 15.7L5.5 14.5C5.2 14.2 5.2 13.8 5.5 13.5L8.5 12.5Z" fill="#3B99FC"/>
</svg>
